<?xml version="1.0" encoding="UTF-8" standalone="no"?>
<!-- Created with Inkscape (http://www.inkscape.org/) -->

<svg
   xmlns:dc="http://purl.org/dc/elements/1.1/"
   xmlns:cc="http://creativecommons.org/ns#"
   xmlns:rdf="http://www.w3.org/1999/02/22-rdf-syntax-ns#"
   xmlns:svg="http://www.w3.org/2000/svg"
   xmlns="http://www.w3.org/2000/svg"
   xmlns:sodipodi="http://sodipodi.sourceforge.net/DTD/sodipodi-0.dtd"
   xmlns:inkscape="http://www.inkscape.org/namespaces/inkscape"
   width="{width}"
   height="{height}"
   viewBox="0 0 171.7729 143.86584"
   version="1.1"
   id="svg8"
   inkscape:version="0.92.4 (5da689c313, 2019-01-14)"
   sodipodi:docname="blobAndIllustration.svg">
  <defs
     id="defs2" />
  <sodipodi:namedview
     id="base"
     pagecolor="#ffffff"
     bordercolor="#666666"
     borderopacity="1.0"
     inkscape:pageopacity="0.0"
     inkscape:pageshadow="2"
     inkscape:zoom="4"
     inkscape:cx="54.210953"
     inkscape:cy="93.081689"
     inkscape:document-units="mm"
     inkscape:current-layer="g840"
     showgrid="false"
     inkscape:window-width="1920"
     inkscape:window-height="1017"
     inkscape:window-x="-8"
     inkscape:window-y="-8"
     inkscape:window-maximized="1" />
  <metadata
     id="metadata5">
    <rdf:RDF>
      <cc:Work
         rdf:about="">
        <dc:format>image/svg+xml</dc:format>
        <dc:type
           rdf:resource="http://purl.org/dc/dcmitype/StillImage" />
        <dc:title />
      </cc:Work>
    </rdf:RDF>
  </metadata>
  <g
     inkscape:label="Layer 1"
     inkscape:groupmode="layer"
     id="layer1"
     transform="translate(136.48454,-280.05855)">
    <g
       id="g840"
       transform="translate(22.71791,143.52374)">
      <path
         style="fill:#1e4afd;stroke-width:0.26930645;stroke:none;stroke-opacity:1"
         d="m -83.138029,279.61831 c -14.81788,-1.2703 -25.485341,-6.68951 -31.988691,-16.25069 -3.04384,-4.47504 -4.16382,-7.07412 -6.68997,-15.52528 -6.6895,-22.37932 -14.64399,-37.97405 -24.83393,-48.68678 -3.40039,-3.57484 -4.57489,-4.99086 -6.36629,-7.67543 -5.16512,-7.74037 -6.21241,-16.22725 -3.08699,-25.01607 3.54457,-9.96747 11.67218,-19.18456 22.13103,-25.0976 3.23399,-1.82838 7.26573,-4.08758 11.36281,-5.59963 l 2.77786,-1.06413 69.013837,0.13215 c 37.957606,-0.17455 69.924753,-0.23331 70.112981,-0.11782 0.272753,0.16742 0.212654,12.19088 0.12305,58.74131 -0.03748,19.46963 0.43401,38.93873 0.215929,58.40808 l -4.125668,2.09232 c -21.4907048,10.89893 -48.679816,20.77426 -79.848847,24.95304 -4.069861,0.54564 -15.612556,0.97945 -18.79711,0.70644 z"
         id="path842-4"
         inkscape:connector-curvature="0"
         sodipodi:nodetypes="cccsscsccccscsscc" />
    </g>
    <circle
       style="fill:#f2f2f2;stroke-width:0.15301558"
       cx="-25.939863"
       cy="314.72977"
       r="4.0856309"
       id="circle1030" />
    <path
       inkscape:connector-curvature="0"
       style="fill:#f2f2f2;stroke-width:0.15301558"
       d="m 5.7536672,379.45085 c 6.0728358,-4.62551 8.9733708,-12.39818 7.1575078,-19.81283 q -0.06768,-0.27634 -0.142867,-0.55143 c -1.203836,-4.40126 -4.1821697,-8.58427 -8.5229701,-9.99059 -3.64477789,-1.18081 -7.6231806,-0.27279 -11.4255756,-0.74236 -7.4642993,-0.92179 -13.2512333,-6.96128 -17.3230653,-13.2847 -4.071845,-6.32345 -7.201195,-13.40161 -12.611784,-18.6257 -8.918477,-8.61099 -23.466759,-10.46495 -34.524398,-4.85983 -11.057627,5.60514 -18.101217,18.04059 -17.800831,30.43407 0.300399,12.3935 7.657875,24.24252 18.342736,30.52921 3.925187,2.30946 8.465029,3.94554 12.983106,3.37304 3.920274,-0.49675 7.482319,-2.6032 11.384143,-3.22856 6.134572,-0.98324 12.230061,1.79042 17.535997,5.02255 5.305924,3.23212 10.431082,7.06316 16.460547,8.56159 5.8546033,1.45495 13.10787961,-2.72702 18.4874542,-6.82446 z"
       id="path1032" />
    <path
       inkscape:connector-curvature="0"
       style="fill:#3f3d56;stroke-width:0.15301558"
       d="m -2.9715157,311.84367 c -0.1331326,-0.0887 -0.2677798,-0.17292 -0.4009124,-0.2586 a 58.182654,58.182654 0 0 0 -12.2886779,-5.9569 l -1.000731,13.80506 h -6.34402 v -15.82028 c -0.399373,-0.0827 -0.801801,-0.16066 -1.204228,-0.23411 v 16.05439 h -7.539088 a 15.64889,15.64889 0 0 1 -15.648895,-15.64888 v -2e-5 c -0.403954,0.0871 -0.804855,0.18056 -1.205767,0.28001 v 15.3689 h -6.140511 l -0.953288,-13.16393 a 58.277223,58.277223 0 0 0 -12.538103,6.66077 c -0.06726,0.0459 -0.134646,0.0934 -0.200444,0.13924 -0.338156,0.23718 -0.671733,0.47894 -1.003783,0.72376 v 52.66644 h 18.097161 l -0.319814,-4.42981 -1.759669,-24.32183 h 35.436875 l -1.759681,24.32183 -0.319802,4.42981 h 17.8967059 v -54.08336 q -0.3993858,-0.27083 -0.8033276,-0.53249 z m -45.6323083,21.84755 h -5.109188 L -54.657117,320.639 h 6.053293 z m 24.393739,0 h -8.581108 v -0.25859 a 0.94559798,0.94559798 0 0 0 -0.947169,-0.94563 h -3.730517 a 0.94526441,0.94526441 0 0 0 -0.945631,0.94563 v 0.25859 h -8.983547 V 320.639 h 23.187972 z m 1.204241,0 V 320.639 h 6.256802 l -0.944104,13.05222 z"
       id="path1034" />
    <path
       inkscape:connector-curvature="0"
       style="fill:#3f3d56;stroke-width:0.15301558"
       d="m -96.070171,369.83211 a 44.221945,44.221945 0 0 0 4.302796,4.42979 l 111.79012,0.15302 a 44.221945,44.221945 0 0 0 4.302797,-4.4298 z"
       id="path1036" />
    <path
       inkscape:connector-curvature="0"
       style="fill:#3f3d56;stroke-width:0.15301558"
       d="m -20.261676,355.64764 v 13.11405 a 0.63078068,0.63078068 0 0 0 0.630277,0.63028 h 19.43366431 a 0.63077918,0.63077918 0 0 0 0.6302897,-0.63028 v -13.11405 a 0.63108672,0.63108672 0 0 0 -0.6302897,-0.62958 H -19.631399 a 0.63108826,0.63108826 0 0 0 -0.630277,0.62958 z"
       id="path1038" />
    <path
       inkscape:connector-curvature="0"
       style="fill:#6c63ff;stroke-width:0.15301558"
       d="m -19.805773,355.81081 v 12.7891 a 0.33743453,0.33743453 0 0 0 0.336857,0.33686 h 19.10941381 a 0.337433,0.337433 0 0 0 0.3368565,-0.33686 v -12.7891 a 0.33758448,0.33758448 0 0 0 -0.3368565,-0.33755 H -19.468916 a 0.33758754,0.33758754 0 0 0 -0.336857,0.33755 z"
       id="path1040" />
    <path
       inkscape:connector-curvature="0"
       style="fill:#2f2e41;stroke-width:0.15301558"
       d="m -20.668112,371.31927 a 0.37792552,0.37792552 0 0 0 0.297381,0.14228 H 0.43816041 a 0.38290617,0.38290617 0 0 0 0.3742811,-0.46145 l -0.3230222,-1.53432 a 0.38360085,0.38360085 0 0 0 -0.2384055,-0.27815 0.37101227,0.37101227 0 0 0 -0.1358876,-0.0257 H -20.048996 a 0.37098013,0.37098013 0 0 0 -0.135876,0.0257 0.38356566,0.38356566 0 0 0 -0.238417,0.27815 l -0.323022,1.53432 a 0.38261544,0.38261544 0 0 0 0.07824,0.31917 z"
       id="path1042" />
    <rect
       style="fill:#3f3d56;stroke-width:0.15301558"
       x="0.032666907"
       y="-369.82285"
       width="0.64090425"
       height="0.3845419"
       rx="0.074700683"
       transform="scale(-1)"
       id="rect1044" />
    <rect
       style="fill:#3f3d56;stroke-width:0.15301558"
       x="1.3144612"
       y="-369.82285"
       width="0.64090425"
       height="0.3845419"
       rx="0.074700683"
       transform="scale(-1)"
       id="rect1046" />
    <rect
       style="fill:#3f3d56;stroke-width:0.15301558"
       x="2.5962629"
       y="-369.82285"
       width="0.64090425"
       height="0.3845419"
       rx="0.074700683"
       transform="scale(-1)"
       id="rect1048" />
    <rect
       style="fill:#3f3d56;stroke-width:0.15301558"
       x="3.8780766"
       y="-369.82285"
       width="0.64090425"
       height="0.3845419"
       rx="0.074700683"
       transform="scale(-1)"
       id="rect1050" />
    <rect
       style="fill:#3f3d56;stroke-width:0.15301558"
       x="5.1598892"
       y="-369.82285"
       width="0.64090425"
       height="0.3845419"
       rx="0.074700683"
       transform="scale(-1)"
       id="rect1052" />
    <rect
       style="fill:#3f3d56;stroke-width:0.15301558"
       x="6.4417019"
       y="-369.82285"
       width="0.64090425"
       height="0.3845419"
       rx="0.074700683"
       transform="scale(-1)"
       id="rect1054" />
    <rect
       style="fill:#3f3d56;stroke-width:0.15301558"
       x="7.7235136"
       y="-369.82285"
       width="0.64090425"
       height="0.3845419"
       rx="0.074700683"
       transform="scale(-1)"
       id="rect1056" />
    <rect
       style="fill:#3f3d56;stroke-width:0.15301558"
       x="9.0053253"
       y="-369.82285"
       width="0.64090425"
       height="0.3845419"
       rx="0.074700683"
       transform="scale(-1)"
       id="rect1058" />
    <rect
       style="fill:#3f3d56;stroke-width:0.15301558"
       x="10.287119"
       y="-369.82285"
       width="0.64090425"
       height="0.3845419"
       rx="0.074700683"
       transform="scale(-1)"
       id="rect1060" />
    <rect
       style="fill:#3f3d56;stroke-width:0.15301558"
       x="11.568922"
       y="-369.82285"
       width="0.64090425"
       height="0.3845419"
       rx="0.074700683"
       transform="scale(-1)"
       id="rect1062" />
    <rect
       style="fill:#3f3d56;stroke-width:0.15301558"
       x="12.850762"
       y="-369.82285"
       width="0.64090425"
       height="0.3845419"
       rx="0.074700683"
       transform="scale(-1)"
       id="rect1064" />
    <rect
       style="fill:#3f3d56;stroke-width:0.15301558"
       x="14.132538"
       y="-369.82285"
       width="0.64090425"
       height="0.3845419"
       rx="0.074700683"
       transform="scale(-1)"
       id="rect1066" />
    <rect
       style="fill:#3f3d56;stroke-width:0.15301558"
       x="15.414377"
       y="-369.82285"
       width="0.64090425"
       height="0.3845419"
       rx="0.074700683"
       transform="scale(-1)"
       id="rect1068" />
    <rect
       style="fill:#3f3d56;stroke-width:0.15301558"
       x="16.696173"
       y="-369.82285"
       width="0.64090425"
       height="0.3845419"
       rx="0.074700683"
       transform="scale(-1)"
       id="rect1070" />
    <rect
       style="fill:#3f3d56;stroke-width:0.15301558"
       x="17.977978"
       y="-369.82285"
       width="0.64090425"
       height="0.3845419"
       rx="0.074700683"
       transform="scale(-1)"
       id="rect1072" />
    <rect
       style="fill:#3f3d56;stroke-width:0.15301558"
       x="19.259789"
       y="-369.82285"
       width="0.64090425"
       height="0.3845419"
       rx="0.074700683"
       transform="scale(-1)"
       id="rect1074" />
    <rect
       style="fill:#3f3d56;stroke-width:0.15301558"
       x="0.017508255"
       y="-370.46378"
       width="0.64090425"
       height="0.3845419"
       rx="0.074700683"
       transform="scale(-1)"
       id="rect1076" />
    <rect
       style="fill:#3f3d56;stroke-width:0.15301558"
       x="1.2993296"
       y="-370.46378"
       width="0.64090425"
       height="0.3845419"
       rx="0.074700683"
       transform="scale(-1)"
       id="rect1078" />
    <rect
       style="fill:#3f3d56;stroke-width:0.15301558"
       x="2.5811055"
       y="-370.46378"
       width="0.64090425"
       height="0.3845419"
       rx="0.074700683"
       transform="scale(-1)"
       id="rect1080" />
    <rect
       style="fill:#3f3d56;stroke-width:0.15301558"
       x="3.8629267"
       y="-370.46378"
       width="0.64090425"
       height="0.3845419"
       rx="0.074700683"
       transform="scale(-1)"
       id="rect1082" />
    <rect
       style="fill:#3f3d56;stroke-width:0.15301558"
       x="5.1447477"
       y="-370.46378"
       width="0.64090425"
       height="0.3845419"
       rx="0.074700683"
       transform="scale(-1)"
       id="rect1084" />
    <rect
       style="fill:#3f3d56;stroke-width:0.15301558"
       x="6.4265418"
       y="-370.46378"
       width="0.64090425"
       height="0.3845419"
       rx="0.074700683"
       transform="scale(-1)"
       id="rect1086" />
    <rect
       style="fill:#3f3d56;stroke-width:0.15301558"
       x="7.7083545"
       y="-370.46378"
       width="0.64090425"
       height="0.3845419"
       rx="0.074700683"
       transform="scale(-1)"
       id="rect1088" />
    <rect
       style="fill:#3f3d56;stroke-width:0.15301558"
       x="8.9901667"
       y="-370.46378"
       width="0.64090425"
       height="0.3845419"
       rx="0.074700683"
       transform="scale(-1)"
       id="rect1090" />
    <rect
       style="fill:#3f3d56;stroke-width:0.15301558"
       x="10.271978"
       y="-370.46378"
       width="0.64090425"
       height="0.3845419"
       rx="0.074700683"
       transform="scale(-1)"
       id="rect1092" />
    <rect
       style="fill:#3f3d56;stroke-width:0.15301558"
       x="11.553782"
       y="-370.46378"
       width="0.64090425"
       height="0.3845419"
       rx="0.074700683"
       transform="scale(-1)"
       id="rect1094" />
    <rect
       style="fill:#3f3d56;stroke-width:0.15301558"
       x="12.835603"
       y="-370.46378"
       width="0.64090425"
       height="0.3845419"
       rx="0.074700683"
       transform="scale(-1)"
       id="rect1096" />
    <rect
       style="fill:#3f3d56;stroke-width:0.15301558"
       x="14.117406"
       y="-370.46378"
       width="0.64090425"
       height="0.3845419"
       rx="0.074700683"
       transform="scale(-1)"
       id="rect1098" />
    <rect
       style="fill:#3f3d56;stroke-width:0.15301558"
       x="15.399201"
       y="-370.46378"
       width="0.64090425"
       height="0.3845419"
       rx="0.074700683"
       transform="scale(-1)"
       id="rect1100" />
    <rect
       style="fill:#3f3d56;stroke-width:0.15301558"
       x="16.681025"
       y="-370.46378"
       width="0.64090425"
       height="0.3845419"
       rx="0.074700683"
       transform="scale(-1)"
       id="rect1102" />
    <rect
       style="fill:#3f3d56;stroke-width:0.15301558"
       x="17.962835"
       y="-370.46378"
       width="0.64090425"
       height="0.3845419"
       rx="0.074700683"
       transform="scale(-1)"
       id="rect1104" />
    <rect
       style="fill:#3f3d56;stroke-width:0.15301558"
       x="19.244629"
       y="-370.46378"
       width="0.64090425"
       height="0.3845419"
       rx="0.074700683"
       transform="scale(-1)"
       id="rect1106" />
    <rect
       style="fill:#3f3d56;stroke-width:0.15301558"
       x="6.1701961"
       y="-371.23285"
       width="5.1272354"
       height="0.3845419"
       rx="0.074700683"
       transform="scale(-1)"
       id="rect1108" />
    <rect
       style="fill:#ffffff;stroke-width:0.15301558"
       x="-17.170593"
       y="358.27121"
       width="0.9128679"
       height="0.47773913"
       rx="0.23886956"
       id="rect1110" />
    <rect
       style="fill:#ffffff;stroke-width:0.15301558"
       x="-12.194059"
       y="358.27121"
       width="0.9128679"
       height="0.47773913"
       rx="0.23886956"
       id="rect1112" />
    <rect
       style="fill:#ffffff;stroke-width:0.15301558"
       x="-10.784052"
       y="358.27121"
       width="0.9128679"
       height="0.47773913"
       rx="0.23886956"
       id="rect1114" />
    <rect
       style="fill:#ffffff;stroke-width:0.15301558"
       x="-15.816952"
       y="358.23138"
       width="3.182132"
       height="0.47773913"
       rx="0.23886956"
       id="rect1116" />
    <rect
       style="fill:#ffffff;stroke-width:0.15301558"
       x="-9.1815815"
       y="358.23138"
       width="3.182132"
       height="0.47773913"
       rx="0.23886956"
       id="rect1118" />
    <rect
       style="fill:#ffffff;stroke-width:0.15301558"
       x="-15.843514"
       y="359.34946"
       width="0.9128679"
       height="0.47773913"
       rx="0.23886956"
       id="rect1120" />
    <rect
       style="fill:#ffffff;stroke-width:0.15301558"
       x="-10.866999"
       y="359.34946"
       width="0.9128679"
       height="0.47773913"
       rx="0.23886956"
       id="rect1122" />
    <rect
       style="fill:#ffffff;stroke-width:0.15301558"
       x="-9.4569635"
       y="359.34946"
       width="0.9128679"
       height="0.47773913"
       rx="0.23886956"
       id="rect1124" />
    <rect
       style="fill:#ffffff;stroke-width:0.15301558"
       x="-14.489892"
       y="359.30963"
       width="3.182132"
       height="0.47773913"
       rx="0.23886956"
       id="rect1126" />
    <rect
       style="fill:#ffffff;stroke-width:0.15301558"
       x="-7.8545213"
       y="359.30963"
       width="3.182132"
       height="0.47773913"
       rx="0.23886956"
       id="rect1128" />
    <rect
       style="fill:#ffffff;stroke-width:0.15301558"
       x="-14.516453"
       y="360.4277"
       width="0.9128679"
       height="0.47773913"
       rx="0.23886956"
       id="rect1130" />
    <rect
       style="fill:#ffffff;stroke-width:0.15301558"
       x="-9.5399179"
       y="360.4277"
       width="0.9128679"
       height="0.47773913"
       rx="0.23886956"
       id="rect1132" />
    <rect
       style="fill:#ffffff;stroke-width:0.15301558"
       x="-8.1298838"
       y="360.4277"
       width="0.9128679"
       height="0.47773913"
       rx="0.23886956"
       id="rect1134" />
    <rect
       style="fill:#ffffff;stroke-width:0.15301558"
       x="-13.162812"
       y="360.38788"
       width="3.182132"
       height="0.47773913"
       rx="0.23886956"
       id="rect1136" />
    <rect
       style="fill:#ffffff;stroke-width:0.15301558"
       x="-6.5274415"
       y="360.38788"
       width="3.182132"
       height="0.47773913"
       rx="0.23886956"
       id="rect1138" />
    <rect
       style="fill:#ffffff;stroke-width:0.15301558"
       x="-13.189363"
       y="361.50598"
       width="0.9128679"
       height="0.47773913"
       rx="0.23886956"
       id="rect1140" />
    <rect
       style="fill:#ffffff;stroke-width:0.15301558"
       x="-8.2128305"
       y="361.50598"
       width="0.9128679"
       height="0.47773913"
       rx="0.23886956"
       id="rect1142" />
    <rect
       style="fill:#ffffff;stroke-width:0.15301558"
       x="-6.8028221"
       y="361.50598"
       width="0.9128679"
       height="0.47773913"
       rx="0.23886956"
       id="rect1144" />
    <rect
       style="fill:#ffffff;stroke-width:0.15301558"
       x="-11.835723"
       y="361.46613"
       width="3.182132"
       height="0.47773913"
       rx="0.23886956"
       id="rect1146" />
    <rect
       style="fill:#ffffff;stroke-width:0.15301558"
       x="-12.194059"
       y="365.79355"
       width="0.9128679"
       height="0.47773913"
       rx="0.23886956"
       id="rect1148" />
    <rect
       style="fill:#ffffff;stroke-width:0.15301558"
       x="-10.784052"
       y="365.79355"
       width="0.9128679"
       height="0.47773913"
       rx="0.23886956"
       id="rect1150" />
    <rect
       style="fill:#ffffff;stroke-width:0.15301558"
       x="-9.1815815"
       y="365.83337"
       width="3.182132"
       height="0.47773913"
       rx="0.23886956"
       id="rect1152" />
    <rect
       style="fill:#ffffff;stroke-width:0.15301558"
       x="-17.170593"
       y="365.79355"
       width="0.9128679"
       height="0.47773913"
       rx="0.23886956"
       id="rect1154" />
    <rect
       style="fill:#ffffff;stroke-width:0.15301558"
       x="-15.816952"
       y="365.83337"
       width="3.182132"
       height="0.47773913"
       rx="0.23886956"
       id="rect1156" />
    <rect
       style="fill:#ffffff;stroke-width:0.15301558"
       x="-15.843514"
       y="364.7153"
       width="0.9128679"
       height="0.47773913"
       rx="0.23886956"
       id="rect1158" />
    <rect
       style="fill:#ffffff;stroke-width:0.15301558"
       x="-10.866999"
       y="364.7153"
       width="0.9128679"
       height="0.47773913"
       rx="0.23886956"
       id="rect1160" />
    <rect
       style="fill:#ffffff;stroke-width:0.15301558"
       x="-9.4569635"
       y="364.7153"
       width="0.9128679"
       height="0.47773913"
       rx="0.23886956"
       id="rect1162" />
    <rect
       style="fill:#ffffff;stroke-width:0.15301558"
       x="-14.489892"
       y="364.75513"
       width="3.182132"
       height="0.47773913"
       rx="0.23886956"
       id="rect1164" />
    <rect
       style="fill:#ffffff;stroke-width:0.15301558"
       x="-14.516453"
       y="363.63705"
       width="0.9128679"
       height="0.47773913"
       rx="0.23886956"
       id="rect1166" />
    <rect
       style="fill:#ffffff;stroke-width:0.15301558"
       x="-9.5399179"
       y="363.63705"
       width="0.9128679"
       height="0.47773913"
       rx="0.23886956"
       id="rect1168" />
    <rect
       style="fill:#ffffff;stroke-width:0.15301558"
       x="-8.1298838"
       y="363.63705"
       width="0.9128679"
       height="0.47773913"
       rx="0.23886956"
       id="rect1170" />
    <rect
       style="fill:#ffffff;stroke-width:0.15301558"
       x="-13.162812"
       y="363.67685"
       width="3.182132"
       height="0.47773913"
       rx="0.23886956"
       id="rect1172" />
    <rect
       style="fill:#ffffff;stroke-width:0.15301558"
       x="-13.189363"
       y="362.55881"
       width="0.9128679"
       height="0.47773913"
       rx="0.23886956"
       id="rect1174" />
    <rect
       style="fill:#ffffff;stroke-width:0.15301558"
       x="-8.2128305"
       y="362.55881"
       width="0.9128679"
       height="0.47773913"
       rx="0.23886956"
       id="rect1176" />
    <rect
       style="fill:#ffffff;stroke-width:0.15301558"
       x="-6.8028221"
       y="362.55881"
       width="0.9128679"
       height="0.47773913"
       rx="0.23886956"
       id="rect1178" />
    <rect
       style="fill:#ffffff;stroke-width:0.15301558"
       x="-11.835723"
       y="362.59863"
       width="3.182132"
       height="0.47773913"
       rx="0.23886956"
       id="rect1180" />
    <path
       inkscape:connector-curvature="0"
       style="fill:#ffb6b6;stroke-width:0.15301558"
       d="m -18.809968,378.43017 -2.04269,-3.22887 6.411665,-5.11116 2.646457,-2.93194 a 2.9319895,2.9319895 0 0 1 4.9604573,1.04477 v 0 a 2.9319865,2.9319865 0 0 1 -1.7704147,3.67101 l -4.1847866,1.54168 z"
       id="path1182" />
    <path
       inkscape:connector-curvature="0"
       style="fill:#2f2e41;stroke-width:0.15301558"
       d="m -66.738612,355.01867 v 15.69327 h 10.994168 v -15.69327 a 0.52759772,0.52759772 0 0 0 -0.371837,-0.50496 0.48580914,0.48580914 0 0 0 -0.157604,-0.0245 h -9.933771 a 0.52993577,0.52993577 0 0 0 -0.530956,0.52943 z m 4.29056,5.39226 a 1.17368,1.17368 0 0 1 2.347251,0 v 1.8209 a 1.1736448,1.1736448 0 0 1 -2.347251,0 z"
       id="path1184" />
    <path
       inkscape:connector-curvature="0"
       style="fill:#3f3d56;stroke-width:0.15301558"
       d="m -66.772268,370.21006 v 1.51332 a 0.29780197,0.29780197 0 0 0 0.295318,0.29686 h 10.470856 a 0.29680736,0.29680736 0 0 0 0.295318,-0.29686 v -1.51332 z"
       id="path1186" />
    <path
       inkscape:connector-curvature="0"
       style="fill:#3f3d56;stroke-width:0.15301558"
       d="m -84.03396,331.37471 v 28.65368 a 1.3782327,1.3782327 0 0 0 1.377135,1.37715 h 42.461823 a 1.3782266,1.3782266 0 0 0 1.377134,-1.37715 v -28.65368 a 1.3788953,1.3788953 0 0 0 -1.377134,-1.37561 h -42.461823 a 1.3789013,1.3789013 0 0 0 -1.377135,1.37561 z"
       id="path1188" />
    <path
       inkscape:connector-curvature="0"
       style="fill:#ffffff;stroke-width:0.15301558"
       d="m -83.037833,331.73123 v 27.9437 a 0.73727953,0.73727953 0 0 0 0.736004,0.736 h 41.753357 a 0.73727342,0.73727342 0 0 0 0.736004,-0.736 v -27.9437 a 0.73760698,0.73760698 0 0 0 -0.736004,-0.73754 h -41.753357 a 0.73761314,0.73761314 0 0 0 -0.736004,0.73754 z"
       id="path1190" />
    <path
       inkscape:connector-curvature="0"
       style="fill:#2f2e41;stroke-width:0.15301558"
       d="m -75.289129,371.9177 a 0.45115113,0.45115113 0 0 0 0.354996,0.16986 h 24.840555 a 0.45709577,0.45709577 0 0 0 0.446805,-0.55086 l -0.3856,-1.8316 a 0.45792053,0.45792053 0 0 0 -0.284607,-0.33204 0.4429097,0.4429097 0 0 0 -0.162197,-0.0306 H -74.55006 a 0.44287298,0.44287298 0 0 0 -0.162197,0.0306 0.45788227,0.45788227 0 0 0 -0.284608,0.33204 l -0.385599,1.8316 a 0.45675148,0.45675148 0 0 0 0.09338,0.381 z"
       id="path1192" />
    <path
       inkscape:connector-curvature="0"
       style="fill:#3f3d56;stroke-width:0.15301558"
       d="m -41.903495,334.84307 h -39.068451 a 0.15540262,0.15540262 0 0 1 0,-0.31073 h 39.068451 a 0.15540262,0.15540262 0 0 1 0,0.31073 z"
       id="path1194" />
    <ellipse
       style="fill:#3f3d56;stroke-width:0.15301558"
       cx="-78.312508"
       cy="332.80829"
       rx="0.91050845"
       ry="0.93079996"
       id="ellipse1196" />
    <ellipse
       style="fill:#3f3d56;stroke-width:0.15301558"
       cx="-75.167114"
       cy="332.80829"
       rx="0.91050845"
       ry="0.93079996"
       id="ellipse1198" />
    <ellipse
       style="fill:#3f3d56;stroke-width:0.15301558"
       cx="-72.021713"
       cy="332.80829"
       rx="0.91050845"
       ry="0.93079996"
       id="ellipse1200" />
    <path
       inkscape:connector-curvature="0"
       style="fill:#3f3d56;stroke-width:0.15301558"
       d="m -43.797548,332.10766 h -2.234024 a 0.16912812,0.16912812 0 0 0 0,0.33816 h 2.234024 a 0.16909904,0.16909904 0 0 0 0,-0.33816 z"
       id="path1202" />
    <path
       inkscape:connector-curvature="0"
       style="fill:#3f3d56;stroke-width:0.15301558"
       d="m -43.797548,332.74267 h -2.234024 a 0.16912353,0.16912353 0 0 0 0,0.33817 h 2.234024 a 0.16909445,0.16909445 0 0 0 0,-0.33817 z"
       id="path1204" />
    <path
       inkscape:connector-curvature="0"
       style="fill:#3f3d56;stroke-width:0.15301558"
       d="m -43.797548,333.37767 h -2.234024 a 0.16912812,0.16912812 0 0 0 0,0.33818 h 2.234024 a 0.16909904,0.16909904 0 0 0 0,-0.33818 z"
       id="path1206" />
    <path
       inkscape:connector-curvature="0"
       style="fill:#2f2e41;stroke-width:0.15301558"
       d="m 10.060782,370.8742 a 0.98178008,0.98178008 0 0 0 0.94611,0.66272 l 4.053662,-0.10442 a 0.96835906,0.96835906 0 0 0 0.915165,-0.71258 l 0.573635,-6.13397 a 1.4986483,1.4986483 0 0 0 0.648469,0.13324 1.4783355,1.4783355 0 1 0 -0.07419,-2.95574 1.2522687,1.2522687 0 0 0 -0.265661,0.0277 1.0018909,1.0018909 0 0 0 -0.745806,-0.32179 l -6.2354637,0.16101 a 0.89559095,0.89559095 0 0 0 -0.153805,0.0191 0.97387525,0.97387525 0 0 0 -0.745677,1.26462 z m 6.60621,-6.70465 0.408191,-1.46171 a 0.99559432,0.99559432 0 0 0 0.003,-0.51638 c 0.01982,-4e-5 0.0373,-0.01 0.05709,-0.01 a 1.0574126,1.0574126 0 0 1 0.04954,2.11424 0.99540765,0.99540765 0 0 1 -0.517902,-0.12667 z"
       id="path1208" />
    <path
       inkscape:connector-curvature="0"
       style="fill:#3f3d56;stroke-width:0.15301558"
       d="m 9.7228893,361.64949 c 0.132842,0.75958 1.6264167,1.29357 3.4223207,1.20075 1.651451,-0.0761 3.001774,-0.65597 3.249166,-1.34323 a 0.92193566,0.92193566 0 0 0 -0.282218,-0.0375 l -6.2354637,0.16101 a 0.89559095,0.89559095 0 0 0 -0.153805,0.0191 z"
       id="path1210" />
    <path
       inkscape:connector-curvature="0"
       style="fill:#6c63ff;stroke-width:0.15301558"
       d="m 13.474349,367.50354 a 0.07598601,0.07598601 0 0 0 0.0231,-0.0107 l 0.880317,-0.5762 a 0.07638997,0.07638997 0 0 0 5e-5,-0.12796 l -0.915,-0.59932 a 0.07647332,0.07647332 0 1 0 -0.08384,0.12792 l 0.817242,0.53527 -0.78252,0.51228 a 0.07649402,0.07649402 0 0 0 0.06066,0.13817 z"
       id="path1212" />
    <path
       inkscape:connector-curvature="0"
       style="fill:#6c63ff;stroke-width:0.15301558"
       d="m 12.083935,367.56767 a 0.07650779,0.07650779 0 0 0 0.01927,-0.14054 l -0.81145,-0.46522 0.784294,-0.58256 a 0.07645392,0.07645392 0 1 0 -0.09119,-0.12273 l -0.878097,0.65226 a 0.07643281,0.07643281 0 0 0 0.0075,0.12772 l 0.912779,0.52326 a 0.07646189,0.07646189 0 0 0 0.05685,0.008 z"
       id="path1214" />
    <path
       inkscape:connector-curvature="0"
       style="fill:#6c63ff;stroke-width:0.15301558"
       d="m 13.386789,368.0085 a 0.073804,0.073804 0 0 0 0.02097,-0.008 0.07647107,0.07647107 0 0 0 0.02563,-0.10516 l -1.247917,-2.0517 a 0.07656328,0.07656328 0 0 0 -0.130741,0.0797 l 1.247915,2.05169 a 0.07656134,0.07656134 0 0 0 0.08413,0.0343 z"
       id="path1216" />
    <rect
       style="fill:#6c63ff;stroke-width:0.15301558"
       x="-64.031059"
       y="343.28946"
       width="7.7608213"
       height="1.659561"
       rx="0.49946886"
       id="rect1218" />
    <rect
       style="fill:#e6e6e6;stroke-width:0.15301558"
       x="-67.972534"
       y="346.60858"
       width="15.643735"
       height="1.659561"
       rx="0.49946886"
       id="rect1220" />
    <rect
       style="fill:#e6e6e6;stroke-width:0.15301558"
       x="-67.972534"
       y="349.92767"
       width="15.643735"
       height="1.659561"
       rx="0.49946886"
       id="rect1222" />
    <path
       inkscape:connector-curvature="0"
       style="fill:#3f3d56;stroke-width:0.15301558"
       d="m -51.586826,361.04213 0.03316,0.10473 0.0023,0.003 0.998453,3.03553 1.148568,3.49807 2.160999,6.57376 0.02099,1.02114 v 0.003 l 0.160587,8.21457 -0.445111,1.11366 0.500974,1.82583 c 0,0 -0.230415,-2.75994 -1.46626,-1.17498 -0.699975,0.90071 -1.518627,1.82237 -2.190671,2.68641 q 1.468895,0.59436 2.984899,1.07526 c 0.218191,0.0699 0.438134,0.13615 0.658066,0.20248 q 0.07073,0.021 0.141385,0.0419 a 40.83426,40.83426 0 0 0 10.305738,1.65653 c 0.18153,0.004 0.359588,0.008 0.532387,0.0122 0.06106,0.002 0.120443,0.003 0.179788,0.003 0.195507,0.002 0.389261,0.003 0.584767,0.003 q 0.591733,0 1.178241,-0.0174 a 40.83272,40.83272 0 0 0 8.582873,-1.16079 c -0.0192,-1.1608 -0.07156,-2.51708 -0.146621,-3.9659 -0.03495,-0.71044 -0.818664,-1.48022 -0.865797,-2.22382 -0.03316,-0.5586 0.670303,-1.084 0.633641,-1.65131 -0.237392,-3.49285 -0.53414,-2.15203 -0.754085,-4.62547 q -0.03398,-0.36395 -0.06285,-0.69648 c -0.141386,-1.58845 -0.239133,-2.58168 -0.239133,-2.58168 l 0.939108,-5.91916 1.474989,-9.29332 -0.113419,-0.18676 -0.127419,-0.0629 -7.779927,-3.85068 -0.422416,-1.08226 a 1.6799289,1.6799289 0 0 0 -1.551794,-1.06304 l -5.124944,-0.021 a 1.6726393,1.6726393 0 0 0 -1.363276,0.69299 l -1.387702,1.92184 z"
       id="path1224" />
    <path
       inkscape:connector-curvature="0"
       style="fill:#3f3d56;stroke-width:0.15301558"
       d="m -46.062151,372.79493 -1.160792,2.48393 -0.792476,1.69667 -1.363276,7.13757 -0.682515,0.72439 -0.584755,-2.56444 -6.120271,1.35892 c -0.200755,-1.11542 -0.05379,0.0378 -0.177678,-1.18589 0.03494,-0.035 0.07155,-0.0699 0.108171,-0.10473 0.0978,-0.0907 0.179788,-0.17631 0.178047,-0.25834 -0.06977,-4.22074 0.139644,-11.40368 1.888687,-15.75535 a 9.1890872,9.1890872 0 0 1 1.075258,-2.00563 c 0.03494,-0.0471 0.0681,-0.0942 0.101254,-0.14139 0.806453,-1.12938 1.316144,-2.2413 2.038804,-3.03203 v -0.002 a 0.0811411,0.0811411 0 0 0 0.01228,-0.0122 0.02402344,0.02402344 0 0 0 0.0072,-0.005 l 4.964345,-2.63228 0.212966,5.98374 0.151857,4.30105 z"
       id="path1226" />
    <path
       inkscape:connector-curvature="0"
       style="fill:#3f3d56;stroke-width:0.15301558"
       d="m -28.161641,373.50044 1.449967,3.10238 0.506091,1.08044 1.362882,7.13688 0.680273,0.72265 0.586104,-2.56382 0.2754,-0.0565 4.966658,-1.02863 1.447608,4.59756 a 2.7518323,2.7518323 0 0 0 -0.499018,-3.44371 c -0.09887,-0.0895 -0.181231,-0.17654 -0.178894,-0.25891 0.08241,-4.96431 -0.221255,-14.02903 -2.963504,-17.7599 -0.870925,-1.184 -1.393473,-2.36327 -2.153783,-3.18713 -0.0024,-0.002 -0.0024,-0.005 -0.0048,-0.005 l -1.850153,-3.02942 -0.112941,-0.18596 -0.127098,-0.0636 z"
       id="path1228" />
    <circle
       style="fill:#ffb6b6;stroke-width:0.15301558"
       id="a657ec4b-47ce-4d2a-9c58-81a811696ca9"
       data-name="Ellipse 5"
       cx="-36.945492"
       cy="344.26471"
       r="6.8181086" />
    <path
       inkscape:connector-curvature="0"
       style="fill:#2f2e41;stroke-width:0.15301558"
       d="m -27.730007,339.50228 a 0.57523604,0.57523604 0 0 0 -0.41161,-0.1821 l 0.102568,-0.28461 a 0.5397915,0.5397915 0 0 0 -0.605936,-0.71918 l -0.373362,0.0719 0.03518,-0.24942 a 0.54073714,0.54073714 0 0 0 -0.723768,-0.58451 0.57630408,0.57630408 0 0 1 -0.495762,-0.0352 0.58856984,0.58856984 0 0 1 -0.293791,-0.39938 l -0.130067,-0.62737 -0.01372,-0.0336 c -0.633486,-1.05581 -1.851489,-1.82396 -3.341863,-2.1055 -1.326651,-0.25248 -2.686945,-0.12393 -3.998296,-0.002 -0.520246,0.049 -1.107828,0.10409 -1.597483,0.40395 -0.416203,0.25707 -0.768134,0.7712 -0.696218,1.28994 -1.292983,-0.39632 -2.679301,0.39478 -3.366336,1.39243 -0.814049,1.18741 -0.947171,2.67472 -0.96859,3.83764 -0.0582,2.75121 0.509537,5.00208 1.683162,6.69137 0.08575,0.12241 0.107097,0.37795 0.276964,0.46363 l -0.03518,-0.0566 c 0.189746,0.0948 0.382534,0.24789 0.310631,0.41161 -0.206575,0.4713 1.165968,1.51334 2.133031,1.85762 1.764273,0.62889 4.109997,0.57533 5.759503,0.34887 l 0.0582,-0.39019 c 0.595227,-0.0811 1.014494,-0.23564 1.132313,-0.47741 0.208101,-0.17749 0.385599,-0.33662 0.540139,-0.48352 l 0.0012,-10e-4 c 0.0024,-0.002 0.0095,-0.007 0.01229,-0.0107 0.745187,-0.71457 0.918093,-1.12159 0.996127,-1.74131 0.07502,-0.60747 -0.0582,-1.22411 -0.194327,-1.77957 2.86751,0.44375 -1.129247,-3.05418 1.542397,-3.73052 a 0.83148664,0.83148664 0 0 1 0.09338,-0.0229 c 0.078,-0.0183 0.156079,-0.0367 0.231059,-0.0582 a 4.0470263,4.0470263 0 0 0 1.028268,-0.43915 c 0.746714,-0.45446 0.993063,-1.05734 1.378662,-1.73673 a 0.52431094,0.52431094 0 0 0 -0.06882,-0.61665 z"
       id="path1231" />
    <path
       inkscape:connector-curvature="0"
       style="fill:#2f2e41;stroke-width:0.15301558"
       d="m -12.830878,373.98586 c -0.0012,0.26778 -0.0048,0.64267 -0.01681,1.10631 q -0.0024,0.0964 -0.0048,0.19738 c -0.01992,0.8523 -0.03984,1.56688 -0.07191,2.36103 -0.0012,0.0551 -0.0024,0.10864 -0.0059,0.16373 -0.04282,1.10783 -0.110199,2.39775 -0.226455,4.44051 -0.215759,3.77337 -0.592175,0.51873 -0.970129,1.84231 -0.01837,0.0658 -0.03828,0.14383 -0.05665,0.23564 a 4.2715552,4.2715552 0 0 1 -0.287662,0.96859 c -0.200455,0.11936 -0.40703,0.23412 -0.610539,0.34887 -0.579926,0.32287 -1.169022,0.63348 -1.762735,0.92881 -0.333576,0.16526 -0.668668,0.32745 -1.00531,0.48353 -0.05355,0.0245 -0.105547,0.049 -0.157604,0.072 a 41.449953,41.449953 0 0 1 -5.317291,2.02898 c -0.354997,0.1071 -0.708466,0.21117 -1.066516,0.30756 -0.373362,0.10409 -0.746725,0.20197 -1.124668,0.29378 a 40.83883,40.83883 0 0 1 -8.582646,1.1614 c -0.39019,0.0123 -0.783434,0.0168 -1.178217,0.0168 -0.195864,0 -0.388664,-10e-4 -0.584517,-0.002 -0.05963,0 -0.119358,-10e-4 -0.179024,-0.002 -0.172919,-0.005 -0.351944,-0.007 -0.532496,-0.0123 a 40.803602,40.803602 0 0 1 -10.305606,-1.65715 l -0.142303,-0.0412 c -0.220338,-0.0674 -0.439149,-0.13313 -0.657971,-0.20351 q -1.514859,-0.4797 -2.985329,-1.07417 -1.122366,-0.45216 -2.218722,-0.97011 a 0.0518126,0.0518126 0 0 1 -0.01837,-0.01 c -0.153014,-0.0704 -0.307554,-0.14384 -0.460567,-0.21881 -0.01992,-0.0107 -0.04138,-0.0213 -0.06273,-0.0321 q -0.856125,-0.41773 -1.693883,-0.87525 c -0.469751,-1.07877 -1.130786,-1.28533 -1.540858,-2.23403 a 3.9590576,3.9590576 0 0 1 -0.25707,-0.87831 c 0,-0.002 -0.0012,-0.006 -0.0012,-0.0107 0.04282,0.56922 -0.182091,-1.00991 -0.0012,-0.006 -0.0012,-0.0183 -0.0024,-0.0383 -0.0048,-0.0612 -0.0048,-0.0551 -0.01074,-0.12241 -0.01992,-0.20658 -0.52485,-5.12449 -0.491182,-10.98498 -0.719177,-15.81415 q -0.0229,-0.46824 -0.04747,-0.89667 c -0.0048,-0.095 -0.01074,-0.18821 -0.01681,-0.28002 0.01074,-0.0276 0.0229,-0.0566 0.03673,-0.0842 a 0.15332161,0.15332161 0 0 1 0.01074,-0.0229 0.2483351,0.2483351 0 0 1 0.01526,-0.0276 c 0.0023,-0.005 0.0071,-0.0107 0.01074,-0.0153 a 0.14030456,0.14030456 0 0 1 0.0071,-0.0153 c 0.01372,-0.0215 0.0291,-0.0444 0.04592,-0.0658 0.0071,-0.01 0.01372,-0.0169 0.02135,-0.0245 a 0.12367331,0.12367331 0 0 1 0.01837,-0.0213 0.09747092,0.09747092 0 0 1 0.01681,-0.0199 c 0.0059,-0.006 0.01217,-0.0137 0.01992,-0.0214 a 0.04614796,0.04614796 0 0 1 0.01228,-0.0123 0.31110055,0.31110055 0 0 1 0.03984,-0.0383 1.472602,1.472602 0 0 1 0.174434,-0.13771 c 0.02135,-0.0137 0.04436,-0.0276 0.06583,-0.0428 a 2.9279958,2.9279958 0 0 1 0.485064,-0.23258 c 0.0582,-0.0213 0.11628,-0.0413 0.179025,-0.0627 0.0229,-0.006 0.04436,-0.0137 0.06726,-0.0213 0.03363,-0.0107 0.06739,-0.0213 0.102569,-0.029 0.174433,-0.0521 0.362641,-0.0964 0.56615,-0.13774 0.02445,-0.005 0.05045,-0.01 0.07645,-0.0153 0.03673,-0.007 0.07502,-0.0137 0.113299,-0.0199 0.05199,-0.01 0.105547,-0.0183 0.159132,-0.0276 0.454461,-0.0719 0.970116,-0.12548 1.539331,-0.16067 q 0.08038,-0.005 0.16067,-0.01 c 0.06273,-0.002 0.125477,-0.006 0.189748,-0.01 0.05355,-0.002 0.108647,-0.005 0.163723,-0.006 0.05355,-0.002 0.108647,-0.005 0.16525,-0.006 0.154552,-0.005 0.313683,-0.01 0.47588,-0.0123 0.462106,-0.01 0.948697,-0.006 1.459772,0.005 0.237178,0.006 0.478934,0.0123 0.726821,0.0229 0.01681,0 0.03208,0.001 0.04747,0.001 0.215745,0.007 0.433029,0.0169 0.656431,0.029 0.15608,0.007 0.313684,0.0153 0.471289,0.0245 0.148423,0.01 0.298383,0.0183 0.449859,0.0291 0.117831,0.006 0.23565,0.0153 0.354996,0.0229 0.10101,0.007 0.201983,0.0153 0.302974,0.0215 l 0.137713,0.01 c 0.07502,0.006 0.14996,0.0107 0.226466,0.0183 0.168316,0.0137 0.33663,0.0276 0.50801,0.0413 0.169842,0.0153 0.342749,0.0305 0.515655,0.0459 0.172919,0.0153 0.347352,0.0321 0.521785,0.049 0.01837,10e-4 0.03518,0.002 0.05199,0.005 0.159131,0.0169 0.318263,0.0321 0.478934,0.049 0.03673,0.002 0.07502,0.006 0.111749,0.0107 0.15318,0.0154 0.309354,0.0334 0.463942,0.0498 0.04747,0.005 0.09469,0.01 0.14222,0.0153 0.121088,0.0131 0.240469,0.0247 0.362415,0.039 0.16067,0.0183 0.324406,0.0352 0.483525,0.0566 0.123938,0.0137 0.247887,0.0276 0.371837,0.0428 0.194326,0.0229 0.391717,0.0475 0.589108,0.0735 0.07502,0.01 0.149949,0.0183 0.224929,0.029 0.563097,0.0704 1.132313,0.14842 1.710712,0.22952 0.876782,0.12395 1.767325,0.2586 2.663999,0.40397 q 1.34732,0.21805 2.709917,0.46058 c 0.229519,0.0412 0.45904,0.0827 0.690087,0.12547 q 0.156079,0.0298 0.312158,0.0597 c 0.177498,0.0321 0.354996,0.0658 0.532495,0.0994 0.177497,0.0336 0.354996,0.0674 0.532494,0.10251 0.211154,0.0413 0.423846,0.0827 0.635013,0.12395 1.390909,0.27543 2.774162,0.56922 4.123771,0.87678 0.221875,0.0505 0.443739,0.10262 0.664089,0.15302 q 0.661023,0.15377 1.309811,0.31216 c 0.119358,0.0276 0.237177,0.0566 0.354996,0.0857 0.293792,0.0735 0.587582,0.14689 0.876782,0.22188 l 0.05045,0.0137 c 0.212692,0.0521 0.420793,0.10558 0.628894,0.16066 q 0.736767,0.19282 1.44905,0.3902 0.472827,0.13083 0.934933,0.26472 c 0.46058,0.13312 0.911965,0.26776 1.351124,0.40396 0.108648,0.0336 0.217284,0.0672 0.324394,0.0994 0.321328,0.0994 0.638077,0.20044 0.945631,0.30143 0.244834,0.0796 0.483538,0.16067 0.719176,0.24177 q 0.35347,0.12165 0.693165,0.2433 c 0.145357,0.0521 0.2892,0.1071 0.433031,0.15912 0.206574,0.0764 0.410083,0.15302 0.609001,0.22953 0.06119,0.0229 0.120884,0.0475 0.180563,0.0704 0.03829,0.0169 0.07502,0.0306 0.111749,0.0459 0.07191,0.029 0.145357,0.0566 0.215745,0.0856 0.07191,0.0276 0.142305,0.0566 0.212693,0.0871 0.06882,0.0276 0.139251,0.0566 0.206574,0.0857 0.06882,0.0276 0.136186,0.0566 0.20351,0.0871 0.05665,0.0229 0.111749,0.0475 0.165261,0.0719 0.108649,0.0475 0.217285,0.0948 0.322856,0.14385 0.05199,0.0245 0.104,0.0475 0.156079,0.0719 l 0.119357,0.0551 c 0.01681,0.01 0.03364,0.0169 0.05045,0.0245 0.03829,0.0183 0.078,0.0383 0.116281,0.0566 0.08873,0.0412 0.175972,0.0856 0.261662,0.12699 0.114731,0.0582 0.226455,0.11629 0.333577,0.17292 0.108648,0.0582 0.214219,0.11627 0.315211,0.1729 0.01681,0.01 0.03208,0.0183 0.04902,0.0276 0.02301,0.0123 0.04592,0.026 0.06882,0.0383 0.078,0.0444 0.153013,0.0903 0.227993,0.13463 0.146896,0.0903 0.286135,0.17902 0.416203,0.26778 0.0291,0.0199 0.05665,0.0399 0.08563,0.0582 0.09637,0.0688 0.188208,0.13619 0.273898,0.20504 0,10e-4 0,10e-4 0.0012,10e-4 0.0291,0.0213 0.05665,0.0444 0.0842,0.0658 0.0229,0.0215 0.04747,0.0399 0.07037,0.0612 0.07954,0.0688 0.153014,0.13463 0.220349,0.20197 a 0.86713927,0.86713927 0 0 1 0.06428,0.0658 0.18490249,0.18490249 0 0 1 0.02444,0.0245 c 0.03065,0.0306 0.0582,0.0612 0.0842,0.0918 a 0.08455181,0.08455181 0 0 1 0.01074,0.0137 c 0.03673,0.0428 0.07037,0.0858 0.102569,0.12853 0.01526,0.0213 0.03208,0.0429 0.04592,0.0642 0.01837,0.026 0.03673,0.0535 0.05199,0.0795 0.01372,0.0213 0.026,0.0443 0.03829,0.0658 a 1.1103728,1.1103728 0 0 1 0.08265,0.17289 0.80200054,0.80200054 0 0 1 0.04138,0.12547 0.89428725,0.89428725 0 0 1 0.026,0.12396 z"
       id="path1233" />
    <path
       inkscape:connector-curvature="0"
       style="opacity:0.2;stroke-width:0.15301558"
       d="m -12.830878,373.98586 c -0.0012,0.26778 -0.0048,0.64267 -0.01681,1.10631 -0.0012,0.0642 -0.0048,0.13006 -0.0059,0.19738 -0.01526,0.65031 -0.03829,1.45366 -0.07036,2.36103 -0.0012,0.0551 -0.0024,0.10864 -0.0059,0.16373 -0.04281,1.10783 -0.110198,2.39775 -0.226467,4.44051 -0.215745,3.77337 -0.592161,0.51873 -0.970115,1.84231 -1.049689,-0.64572 -2.200368,-1.32206 -3.430607,-2.01675 q -0.332814,-0.18821 -0.671734,-0.37795 c -2.460503,-1.37255 -5.208653,-2.8109 -8.077701,-4.23547 -0.11318,-0.0566 -0.227994,-0.11318 -0.341222,-0.16831 -6.572013,-3.24852 -13.745384,-6.40829 -19.556921,-8.51685 -1.121603,-0.40702 -2.19271,-0.77426 -3.199559,-1.09713 -2.120795,-0.67785 -3.953918,-1.15221 -5.364721,-1.35724 -1.468954,-0.21422 -2.483448,-0.13772 -2.893532,0.3045 q -0.0229,-0.46823 -0.04747,-0.89668 -0.0095,-0.14231 -0.01837,-0.28002 c 0.0095,-0.0251 0.02171,-0.0493 0.03352,-0.0735 0.0012,-0.003 0.0023,-0.007 0.0048,-0.0107 a 0.15332161,0.15332161 0 0 1 0.01074,-0.0229 0.2483351,0.2483351 0 0 1 0.01526,-0.0276 0.16217356,0.16217356 0 0 1 0.01837,-0.0306 c 0.01372,-0.0215 0.0291,-0.0444 0.04591,-0.0658 a 0.53289357,0.53289357 0 0 1 0.03984,-0.0459 0.09747092,0.09747092 0 0 1 0.01681,-0.0199 c 0.0059,-0.006 0.01217,-0.0137 0.01992,-0.0213 a 0.04614796,0.04614796 0 0 1 0.01217,-0.0122 0.31110055,0.31110055 0 0 1 0.03984,-0.0383 1.472602,1.472602 0 0 1 0.174446,-0.13772 c 0.02135,-0.0137 0.04436,-0.0276 0.06583,-0.0428 a 2.9279958,2.9279958 0 0 1 0.485064,-0.23257 c 0.05808,-0.0214 0.116281,-0.0413 0.179025,-0.0628 0.0229,-0.006 0.04436,-0.0137 0.06739,-0.0214 0.03363,-0.0107 0.06726,-0.0213 0.102569,-0.029 0.174444,-0.0521 0.362652,-0.0964 0.566162,-0.13771 0.06118,-0.0123 0.125476,-0.0245 0.189746,-0.0352 0.05199,-0.01 0.105548,-0.0183 0.159132,-0.0276 0.454461,-0.0719 0.970116,-0.12546 1.539331,-0.16066 q 0.08038,-0.005 0.160671,-0.01 c 0.06273,-0.002 0.125476,-0.006 0.189734,-0.01 0.05355,-0.002 0.108649,-0.005 0.163735,-0.006 0.05355,-0.002 0.108649,-0.005 0.16525,-0.006 0.154553,-0.005 0.313684,-0.01 0.475881,-0.0122 0.462106,-0.007 0.948697,-0.004 1.459773,0.006 0.237164,0.005 0.478933,0.0123 0.72682,0.0229 0.01526,0 0.03208,0.001 0.04747,0.001 0.215745,0.006 0.434556,0.0168 0.656431,0.0276 0.156079,0.007 0.313685,0.0153 0.47129,0.0245 0.14841,0.01 0.298371,0.0183 0.449857,0.0291 0.117831,0.006 0.235639,0.0153 0.354997,0.0229 0.101011,0.007 0.201983,0.0153 0.302974,0.0215 0.120872,0.01 0.241756,0.0183 0.36418,0.0276 0.168315,0.0137 0.33663,0.0276 0.50801,0.0413 0.169841,0.0153 0.342748,0.0306 0.515654,0.0459 0.172907,0.0153 0.347352,0.0321 0.521785,0.049 0.01837,10e-4 0.03518,0.002 0.05199,0.005 0.159143,0.0168 0.318275,0.0321 0.478946,0.049 q 1.335822,0.13541 2.749689,0.31674 0.84464,0.10793 1.710711,0.23106 c 0.876782,0.12394 1.767327,0.25858 2.664,0.40242 q 1.34732,0.21805 2.709905,0.46058 c 0.229532,0.0412 0.459052,0.0827 0.690099,0.12547 q 0.422333,0.078 0.844652,0.15914 c 0.177499,0.0336 0.354996,0.0672 0.532495,0.10261 0.211155,0.0412 0.423846,0.0827 0.635012,0.12393 1.390911,0.27544 2.774163,0.56923 4.123772,0.87679 0.221876,0.0505 0.443739,0.10261 0.664089,0.15302 q 0.661023,0.15378 1.309811,0.31215 c 0.119346,0.0291 0.237177,0.0581 0.354997,0.0871 q 0.442976,0.1102 0.876781,0.22035 v 10e-4 c 0.01681,0.002 0.03364,0.007 0.05045,0.0122 0.211153,0.0535 0.420793,0.10709 0.628882,0.16219 q 0.736779,0.1928 1.449062,0.38866 c 0.315211,0.0887 0.627368,0.17598 0.934934,0.26473 0.460567,0.13465 0.911975,0.2693 1.351123,0.40395 0.108648,0.0336 0.217285,0.0673 0.324394,0.0994 q 0.481999,0.15149 0.945631,0.30145 c 0.244822,0.0795 0.483526,0.16066 0.719176,0.24176 q 0.353471,0.12164 0.693165,0.2433 c 0.146896,0.052 0.290726,0.10558 0.43303,0.15761 0.208101,0.0764 0.410084,0.15301 0.609002,0.23104 0.06119,0.0229 0.120884,0.0475 0.180563,0.0704 0.111749,0.0428 0.220338,0.0871 0.327447,0.1316 0.07191,0.0276 0.142304,0.0566 0.212692,0.0871 0.06882,0.0276 0.139239,0.0566 0.206575,0.0857 0.06882,0.0276 0.136174,0.0566 0.203509,0.0871 0.05665,0.0229 0.111749,0.0475 0.16525,0.0719 0.108648,0.0475 0.217285,0.0948 0.322867,0.14384 0.05199,0.0245 0.104,0.0475 0.156079,0.0719 l 0.119346,0.0551 c 0.01681,0.01 0.03364,0.0169 0.05045,0.0245 0.130067,0.0612 0.255543,0.1224 0.377954,0.1836 0.114731,0.0581 0.226468,0.11629 0.333577,0.17292 0.127003,0.0672 0.247887,0.13313 0.364167,0.20045 0.0229,0.0122 0.04592,0.026 0.06882,0.0383 0.078,0.0444 0.153013,0.0903 0.227993,0.13464 0.146895,0.0903 0.286135,0.17902 0.416202,0.26777 0.128529,0.0887 0.247887,0.17597 0.359588,0.26318 0,10e-4 0,10e-4 0.0012,10e-4 0.05355,0.0429 0.105548,0.0856 0.154541,0.12701 0.07955,0.0688 0.153025,0.13464 0.220349,0.20197 a 0.86713927,0.86713927 0 0 1 0.06428,0.0658 0.18490249,0.18490249 0 0 1 0.02445,0.0245 c 0.03208,0.0352 0.06428,0.0704 0.09481,0.10558 0.03673,0.0428 0.07037,0.0856 0.102569,0.12854 0.01526,0.0213 0.03208,0.0428 0.04591,0.0642 0.01837,0.026 0.03673,0.0535 0.052,0.0795 0.01372,0.0214 0.026,0.0444 0.03829,0.0658 a 1.1103728,1.1103728 0 0 1 0.08265,0.17289 0.92622163,0.92622163 0 0 1 0.04138,0.12547 0.89428725,0.89428725 0 0 1 0.026,0.12395 z"
       id="path1235" />
  </g>
</svg>
