<?xml version="1.0" encoding="UTF-8" standalone="no"?>
<!-- Created with Inkscape (http://www.inkscape.org/) -->

<svg
   xmlns:dc="http://purl.org/dc/elements/1.1/"
   xmlns:cc="http://creativecommons.org/ns#"
   xmlns:rdf="http://www.w3.org/1999/02/22-rdf-syntax-ns#"
   xmlns:svg="http://www.w3.org/2000/svg"
   xmlns="http://www.w3.org/2000/svg"
   xmlns:sodipodi="http://sodipodi.sourceforge.net/DTD/sodipodi-0.dtd"
   xmlns:inkscape="http://www.inkscape.org/namespaces/inkscape"
   width="{width}"
   height="{height}"
   viewBox="0 0 171.7729 143.86584"
   version="1.1"
   id="svg8"
   inkscape:version="0.92.4 (5da689c313, 2019-01-14)"
   sodipodi:docname="semiblob.svg">
  <defs
     id="defs2" />
  <sodipodi:namedview
     id="base"
     pagecolor="#ffffff"
     bordercolor="#666666"
     borderopacity="1.0"
     inkscape:pageopacity="0.0"
     inkscape:pageshadow="2"
     inkscape:zoom="0.7"
     inkscape:cx="171.94298"
     inkscape:cy="368.79983"
     inkscape:document-units="mm"
     inkscape:current-layer="layer1"
     showgrid="false"
     inkscape:window-width="1920"
     inkscape:window-height="1017"
     inkscape:window-x="-8"
     inkscape:window-y="-8"
     inkscape:window-maximized="1" />
  <metadata
     id="metadata5">
    <rdf:RDF>
      <cc:Work
         rdf:about="">
        <dc:format>image/svg+xml</dc:format>
        <dc:type
           rdf:resource="http://purl.org/dc/dcmitype/StillImage" />
        <dc:title></dc:title>
      </cc:Work>
    </rdf:RDF>
  </metadata>
  <g
     inkscape:label="Layer 1"
     inkscape:groupmode="layer"
     id="layer1"
     transform="translate(136.48454,-280.05855)">
    <g
       id="g840"
       transform="translate(22.71791,143.52374)">
      <path
         style="fill:#1e4afd;stroke-width:0.26458335"
         d="m -87.130406,280.30228 c -14.382874,-1.33116 -24.715854,-6.76711 -30.985674,-16.30087 -2.93453,-4.46221 -4.00978,-7.05084 -6.42281,-15.46286 -6.38992,-22.27569 -14.04031,-37.81342 -23.88454,-48.50885 -3.28502,-3.56907 -4.41882,-4.982 -6.14565,-7.65871 -4.97894,-7.71771 -5.95574,-16.15841 -2.87922,-24.87993 3.48912,-9.89115 11.42505,-19.01524 21.60908,-24.84436 3.14903,-1.80244 7.20695,-3.67164 11.19257,-5.15566 l 2.56813,-0.95623 67.01729,0.004 c 36.859508,0.002 67.166382,0.0987 67.348611,0.21442 0.264062,0.16767 0.317775,11.99649 0.264583,58.26825 l -0.06674,58.05787 -3.7041668,2.17376 c -20.2791652,11.90067 -47.3687922,20.42429 -77.6552112,24.43383 -3.954616,0.52354 -15.165187,0.90137 -18.256251,0.61529 z"
         id="path842"
         inkscape:connector-curvature="0"
         sodipodi:nodetypes="cccsscsccccscsscc" />
    </g>
  </g>
</svg>
